<svg width="40" height="40" viewBox="0 0 40 40" fill="none" xmlns="http://www.w3.org/2000/svg">
<g clip-path="url(#clip0_405_2559)">
<path d="M19.9991 0C19.6278 0 19.2717 0.1475 19.0091 0.41005C18.7466 0.672601 18.5991 1.0287 18.5991 1.4V37.2H14.7711C14.3998 37.2 14.0437 37.3475 13.7811 37.6101C13.5186 37.8726 13.3711 38.2287 13.3711 38.6C13.3711 38.9713 13.5186 39.3274 13.7811 39.59C14.0437 39.8525 14.3998 40 14.7711 40H24.7711C25.1424 40 25.4985 39.8525 25.761 39.59C26.0236 39.3274 26.1711 38.9713 26.1711 38.6C26.1711 38.2287 26.0236 37.8726 25.761 37.6101C25.4985 37.3475 25.1424 37.2 24.7711 37.2H21.3991V18.8H38.5991C38.9704 18.8 39.3265 18.6525 39.589 18.3899C39.8516 18.1274 39.9991 17.7713 39.9991 17.4V1.4C39.9991 1.0287 39.8516 0.672601 39.589 0.41005C39.3265 0.1475 38.9704 0 38.5991 0H20.1991C20.1652 0.00010266 20.1313 0.00143687 20.0975 0.004C20.0648 0.00151308 20.0319 0.000178926 19.9991 0V0Z" fill="#FAA00F"/>
</g>
<defs>
<clipPath id="clip0_405_2559">
<rect width="40" height="40" fill="white"/>
</clipPath>
</defs>
</svg>
