<?xml version="1.0" standalone="no"?>
<!DOCTYPE svg PUBLIC "-//W3C//DTD SVG 20010904//EN"
 "http://www.w3.org/TR/2001/REC-SVG-20010904/DTD/svg10.dtd">
<svg version="1.0" xmlns="http://www.w3.org/2000/svg"
 width="568.000000pt" height="568.000000pt" viewBox="0 0 568.000000 568.000000"
 preserveAspectRatio="xMidYMid meet">
<metadata>
Created by potrace 1.14, written by Peter Selinger 2001-2017
</metadata>
<g transform="translate(0.000000,568.000000) scale(0.100000,-0.100000)"
fill="#000000" stroke="none">
<path d="M900 5655 c-448 -81 -806 -443 -885 -894 -13 -71 -15 -350 -15 -1917
0 -1242 3 -1858 11 -1911 13 -98 69 -268 116 -353 134 -243 350 -428 607 -519
170 -60 183 -61 1017 -61 l759 0 0 273 0 274 -742 0 c-823 1 -806 -1 -933 66
-77 41 -181 145 -222 222 -70 134 -65 -9 -66 1995 0 1425 2 1817 12 1860 47
202 203 363 401 415 59 16 139 18 808 18 l742 1 0 273 0 273 -767 -1 c-599 -1
-784 -4 -843 -14z"/>
<path d="M3160 5397 l0 -273 738 -1 c560 0 750 -3 792 -12 208 -48 372 -213
421 -421 10 -44 12 -424 12 -1860 0 -1677 -1 -1810 -17 -1870 -51 -190 -208
-347 -396 -396 -58 -15 -148 -17 -807 -17 l-743 -1 0 -273 0 -273 759 0 c817
0 845 2 996 53 389 134 661 446 739 847 22 113 23 3758 1 3870 -84 430 -392
758 -820 871 l-90 24 -792 3 -793 3 0 -274z"/>
<path d="M2750 4504 c-224 -36 -375 -79 -523 -148 -441 -207 -745 -560 -862
-998 -73 -275 -73 -619 -1 -907 136 -537 553 -956 1090 -1096 51 -13 112 -26
137 -30 24 -3 51 -8 59 -10 35 -9 164 -17 285 -17 171 0 272 10 420 43 251 56
467 166 700 357 137 113 196 173 182 187 -7 6 -88 91 -181 188 -93 98 -174
177 -179 177 -6 0 -38 -26 -71 -57 -203 -192 -380 -292 -609 -344 -111 -26
-340 -30 -457 -10 -346 61 -623 261 -770 559 -44 90 -87 227 -96 306 -3 28 -7
58 -10 66 -11 32 -4 250 11 335 27 158 74 276 162 407 141 211 362 369 609
435 89 24 117 27 279 27 181 1 214 -3 351 -44 191 -57 391 -178 551 -333 l53
-51 36 34 c43 41 82 78 234 223 l113 108 -29 31 c-247 270 -569 452 -944 535
-98 21 -145 25 -315 28 -110 1 -211 1 -225 -1z"/>
</g>
</svg>
