<svg width="18" height="17" viewBox="0 0 18 17" fill="none" xmlns="http://www.w3.org/2000/svg">
<path d="M3.21094 12.9276L8.06625 8.07227L8.92475 8.93076L4.06944 13.7861L3.21094 12.9276Z" fill="#4E5D78"/>
<path d="M9.1082 17C9.0313 17.0002 8.95507 16.9858 8.88356 16.9575C8.78409 16.9178 8.69688 16.8526 8.63077 16.7684C8.56466 16.6841 8.522 16.5839 8.50713 16.4779L7.89999 12.2279L9.11427 12.0579L9.56963 15.2575L11.5368 13.6729V9.10716C11.5363 9.02726 11.5516 8.94805 11.5818 8.87407C11.612 8.8001 11.6566 8.73282 11.7128 8.67609L14.1839 6.20502C14.6931 5.69931 15.0969 5.09764 15.372 4.43483C15.6472 3.77203 15.7881 3.06124 15.7868 2.3436V1.21432H14.6575C13.9398 1.21296 13.229 1.35392 12.5662 1.62904C11.9034 1.90417 11.3018 2.308 10.7961 2.81717L8.32499 5.28824C8.26825 5.34451 8.20097 5.38903 8.127 5.41924C8.05303 5.44946 7.97382 5.46477 7.89392 5.46431H3.32821L1.74357 7.44359L4.94321 7.89895L4.77321 9.11323L0.523219 8.50609C0.417177 8.49121 0.316955 8.44856 0.232719 8.38245C0.148483 8.31634 0.0832292 8.22913 0.0435769 8.12966C0.00343336 8.0295 -0.00928974 7.92045 0.00671742 7.81373C0.0227246 7.70702 0.0668836 7.6065 0.134648 7.52252L2.56321 4.48681C2.61914 4.41414 2.69081 4.35509 2.77283 4.31408C2.85485 4.27307 2.94509 4.25117 3.03678 4.25003H7.64499L9.93391 1.95503C10.5527 1.33278 11.2888 0.839552 12.0997 0.503959C12.9105 0.168366 13.7799 -0.0029186 14.6575 3.76233e-05H15.7868C16.1088 3.76233e-05 16.4177 0.127971 16.6454 0.355693C16.8731 0.583415 17.001 0.892273 17.001 1.21432V2.3436C17.004 3.22115 16.8327 4.09055 16.4971 4.90139C16.1615 5.71223 15.6683 6.44839 15.046 7.06716L12.751 9.35609V13.9643C12.7506 14.0555 12.7297 14.1454 12.6897 14.2274C12.6498 14.3094 12.5919 14.3813 12.5203 14.4379L9.48463 16.8664C9.37781 16.9521 9.24515 16.9992 9.1082 17Z" fill="#4E5D78"/>
</svg>
