<svg width="17" height="16" viewBox="0 0 17 16" fill="none" xmlns="http://www.w3.org/2000/svg">
<path d="M4.66667 0H2.66667C1.95942 0 1.28115 0.280952 0.781049 0.781049C0.280952 1.28115 0 1.95942 0 2.66667L0 4.66667C0 5.37391 0.280952 6.05219 0.781049 6.55228C1.28115 7.05238 1.95942 7.33333 2.66667 7.33333H4.66667C5.37391 7.33333 6.05219 7.05238 6.55228 6.55228C7.05238 6.05219 7.33333 5.37391 7.33333 4.66667V2.66667C7.33333 1.95942 7.05238 1.28115 6.55228 0.781049C6.05219 0.280952 5.37391 0 4.66667 0ZM6 4.66667C6 5.02029 5.85952 5.35943 5.60948 5.60948C5.35943 5.85952 5.02029 6 4.66667 6H2.66667C2.31304 6 1.97391 5.85952 1.72386 5.60948C1.47381 5.35943 1.33333 5.02029 1.33333 4.66667V2.66667C1.33333 2.31304 1.47381 1.97391 1.72386 1.72386C1.97391 1.47381 2.31304 1.33333 2.66667 1.33333H4.66667C5.02029 1.33333 5.35943 1.47381 5.60948 1.72386C5.85952 1.97391 6 2.31304 6 2.66667V4.66667Z" fill="white"/>
<path d="M4.66667 0H2.66667C1.95942 0 1.28115 0.280952 0.781049 0.781049C0.280952 1.28115 0 1.95942 0 2.66667L0 4.66667C0 5.37391 0.280952 6.05219 0.781049 6.55228C1.28115 7.05238 1.95942 7.33333 2.66667 7.33333H4.66667C5.37391 7.33333 6.05219 7.05238 6.55228 6.55228C7.05238 6.05219 7.33333 5.37391 7.33333 4.66667V2.66667C7.33333 1.95942 7.05238 1.28115 6.55228 0.781049C6.05219 0.280952 5.37391 0 4.66667 0ZM6 4.66667C6 5.02029 5.85952 5.35943 5.60948 5.60948C5.35943 5.85952 5.02029 6 4.66667 6H2.66667C2.31304 6 1.97391 5.85952 1.72386 5.60948C1.47381 5.35943 1.33333 5.02029 1.33333 4.66667V2.66667C1.33333 2.31304 1.47381 1.97391 1.72386 1.72386C1.97391 1.47381 2.31304 1.33333 2.66667 1.33333H4.66667C5.02029 1.33333 5.35943 1.47381 5.60948 1.72386C5.85952 1.97391 6 2.31304 6 2.66667V4.66667Z" fill="#4E5D78"/>
<path d="M13.3346 0H11.3346C10.6274 0 9.94911 0.280952 9.44902 0.781049C8.94892 1.28115 8.66797 1.95942 8.66797 2.66667V4.66667C8.66797 5.37391 8.94892 6.05219 9.44902 6.55229C9.94911 7.05238 10.6274 7.33333 11.3346 7.33333H13.3346C14.0419 7.33333 14.7202 7.05238 15.2203 6.55229C15.7203 6.05219 16.0013 5.37391 16.0013 4.66667V2.66667C16.0013 1.95942 15.7203 1.28115 15.2203 0.781049C14.7202 0.280952 14.0419 0 13.3346 0V0ZM14.668 4.66667C14.668 5.02029 14.5275 5.35943 14.2774 5.60948C14.0274 5.85952 13.6883 6 13.3346 6H11.3346C10.981 6 10.6419 5.85952 10.3918 5.60948C10.1418 5.35943 10.0013 5.02029 10.0013 4.66667V2.66667C10.0013 2.31304 10.1418 1.97391 10.3918 1.72386C10.6419 1.47381 10.981 1.33333 11.3346 1.33333H13.3346C13.6883 1.33333 14.0274 1.47381 14.2774 1.72386C14.5275 1.97391 14.668 2.31304 14.668 2.66667V4.66667Z" fill="white"/>
<path d="M13.3346 0H11.3346C10.6274 0 9.94911 0.280952 9.44902 0.781049C8.94892 1.28115 8.66797 1.95942 8.66797 2.66667V4.66667C8.66797 5.37391 8.94892 6.05219 9.44902 6.55229C9.94911 7.05238 10.6274 7.33333 11.3346 7.33333H13.3346C14.0419 7.33333 14.7202 7.05238 15.2203 6.55229C15.7203 6.05219 16.0013 5.37391 16.0013 4.66667V2.66667C16.0013 1.95942 15.7203 1.28115 15.2203 0.781049C14.7202 0.280952 14.0419 0 13.3346 0V0ZM14.668 4.66667C14.668 5.02029 14.5275 5.35943 14.2774 5.60948C14.0274 5.85952 13.6883 6 13.3346 6H11.3346C10.981 6 10.6419 5.85952 10.3918 5.60948C10.1418 5.35943 10.0013 5.02029 10.0013 4.66667V2.66667C10.0013 2.31304 10.1418 1.97391 10.3918 1.72386C10.6419 1.47381 10.981 1.33333 11.3346 1.33333H13.3346C13.6883 1.33333 14.0274 1.47381 14.2774 1.72386C14.5275 1.97391 14.668 2.31304 14.668 2.66667V4.66667Z" fill="#4E5D78"/>
<path d="M4.66667 8.66602H2.66667C1.95942 8.66602 1.28115 8.94697 0.781049 9.44706C0.280952 9.94716 0 10.6254 0 11.3327L0 13.3327C0 14.0399 0.280952 14.7182 0.781049 15.2183C1.28115 15.7184 1.95942 15.9993 2.66667 15.9993H4.66667C5.37391 15.9993 6.05219 15.7184 6.55229 15.2183C7.05238 14.7182 7.33333 14.0399 7.33333 13.3327V11.3327C7.33333 10.6254 7.05238 9.94716 6.55229 9.44706C6.05219 8.94697 5.37391 8.66602 4.66667 8.66602ZM6 13.3327C6 13.6863 5.85952 14.0254 5.60948 14.2755C5.35943 14.5255 5.02029 14.666 4.66667 14.666H2.66667C2.31304 14.666 1.97391 14.5255 1.72386 14.2755C1.47381 14.0254 1.33333 13.6863 1.33333 13.3327V11.3327C1.33333 10.9791 1.47381 10.6399 1.72386 10.3899C1.97391 10.1398 2.31304 9.99935 2.66667 9.99935H4.66667C5.02029 9.99935 5.35943 10.1398 5.60948 10.3899C5.85952 10.6399 6 10.9791 6 11.3327V13.3327Z" fill="white"/>
<path d="M4.66667 8.66602H2.66667C1.95942 8.66602 1.28115 8.94697 0.781049 9.44706C0.280952 9.94716 0 10.6254 0 11.3327L0 13.3327C0 14.0399 0.280952 14.7182 0.781049 15.2183C1.28115 15.7184 1.95942 15.9993 2.66667 15.9993H4.66667C5.37391 15.9993 6.05219 15.7184 6.55229 15.2183C7.05238 14.7182 7.33333 14.0399 7.33333 13.3327V11.3327C7.33333 10.6254 7.05238 9.94716 6.55229 9.44706C6.05219 8.94697 5.37391 8.66602 4.66667 8.66602ZM6 13.3327C6 13.6863 5.85952 14.0254 5.60948 14.2755C5.35943 14.5255 5.02029 14.666 4.66667 14.666H2.66667C2.31304 14.666 1.97391 14.5255 1.72386 14.2755C1.47381 14.0254 1.33333 13.6863 1.33333 13.3327V11.3327C1.33333 10.9791 1.47381 10.6399 1.72386 10.3899C1.97391 10.1398 2.31304 9.99935 2.66667 9.99935H4.66667C5.02029 9.99935 5.35943 10.1398 5.60948 10.3899C5.85952 10.6399 6 10.9791 6 11.3327V13.3327Z" fill="#4E5D78"/>
<path d="M13.3346 8.66602H11.3346C10.6274 8.66602 9.94911 8.94697 9.44902 9.44706C8.94892 9.94716 8.66797 10.6254 8.66797 11.3327V13.3327C8.66797 14.0399 8.94892 14.7182 9.44902 15.2183C9.94911 15.7184 10.6274 15.9993 11.3346 15.9993H13.3346C14.0419 15.9993 14.7202 15.7184 15.2203 15.2183C15.7203 14.7182 16.0013 14.0399 16.0013 13.3327V11.3327C16.0013 10.6254 15.7203 9.94716 15.2203 9.44706C14.7202 8.94697 14.0419 8.66602 13.3346 8.66602ZM14.668 13.3327C14.668 13.6863 14.5275 14.0254 14.2774 14.2755C14.0274 14.5255 13.6883 14.666 13.3346 14.666H11.3346C10.981 14.666 10.6419 14.5255 10.3918 14.2755C10.1418 14.0254 10.0013 13.6863 10.0013 13.3327V11.3327C10.0013 10.9791 10.1418 10.6399 10.3918 10.3899C10.6419 10.1398 10.981 9.99935 11.3346 9.99935H13.3346C13.6883 9.99935 14.0274 10.1398 14.2774 10.3899C14.5275 10.6399 14.668 10.9791 14.668 11.3327V13.3327Z" fill="white"/>
<path d="M13.3346 8.66602H11.3346C10.6274 8.66602 9.94911 8.94697 9.44902 9.44706C8.94892 9.94716 8.66797 10.6254 8.66797 11.3327V13.3327C8.66797 14.0399 8.94892 14.7182 9.44902 15.2183C9.94911 15.7184 10.6274 15.9993 11.3346 15.9993H13.3346C14.0419 15.9993 14.7202 15.7184 15.2203 15.2183C15.7203 14.7182 16.0013 14.0399 16.0013 13.3327V11.3327C16.0013 10.6254 15.7203 9.94716 15.2203 9.44706C14.7202 8.94697 14.0419 8.66602 13.3346 8.66602ZM14.668 13.3327C14.668 13.6863 14.5275 14.0254 14.2774 14.2755C14.0274 14.5255 13.6883 14.666 13.3346 14.666H11.3346C10.981 14.666 10.6419 14.5255 10.3918 14.2755C10.1418 14.0254 10.0013 13.6863 10.0013 13.3327V11.3327C10.0013 10.9791 10.1418 10.6399 10.3918 10.3899C10.6419 10.1398 10.981 9.99935 11.3346 9.99935H13.3346C13.6883 9.99935 14.0274 10.1398 14.2774 10.3899C14.5275 10.6399 14.668 10.9791 14.668 11.3327V13.3327Z" fill="#4E5D78"/>
</svg>
