<svg xmlns="http://www.w3.org/2000/svg" viewBox="0 0 136.07 136.07"><defs><style>.cls-1{fill:#52525b;}</style></defs><g id="Layer_2" data-name="Layer 2"><g id="Layer_1-2" data-name="Layer 1"><path class="cls-1" d="M93.07,81.93a40.24,40.24,0,0,1-11,8.11,27.79,27.79,0,0,1-11.5,2.35A27.17,27.17,0,0,1,57.19,89a23.8,23.8,0,0,1-9.36-9.28,27.15,27.15,0,0,1-3.31-13.48A25.48,25.48,0,0,1,70.34,40.46c8.38,0,16,3.51,22.76,10.46l9.14-8.71A42.32,42.32,0,0,0,70.56,27.83,40.23,40.23,0,0,0,50.62,33,37,37,0,0,0,36.4,46.74a38.24,38.24,0,0,0-5,19.51c0,11.26,3.67,20.62,10.9,27.81s16.66,10.85,28,10.85a42.11,42.11,0,0,0,16.53-3.07c4.7-2,9.75-5.58,15-10.67Z"/><path class="cls-1" d="M86.89,101.84a42.11,42.11,0,0,1-16.53,3.07c-11.36,0-20.79-3.65-28-10.85s-10.9-16.55-10.9-27.81a38.24,38.24,0,0,1,5-19.51A37,37,0,0,1,50.62,33a40.23,40.23,0,0,1,19.94-5.2,42.32,42.32,0,0,1,31.68,14.38L93.1,50.92c-6.72-7-14.38-10.46-22.76-10.46A25.48,25.48,0,0,0,44.52,66.27a27.15,27.15,0,0,0,3.31,13.48A23.8,23.8,0,0,0,57.19,89a27.17,27.17,0,0,0,13.4,3.36A27.79,27.79,0,0,0,82.09,90a40.24,40.24,0,0,0,11-8.11l8.85,9.24C96.64,96.26,91.59,99.85,86.89,101.84Z"/><path class="cls-1" d="M13.06,109.76V26.31A13.26,13.26,0,0,1,26.31,13.06H60.23V0H26.31A26.34,26.34,0,0,0,0,26.31v83.45a26.34,26.34,0,0,0,26.31,26.31H60.23V123H26.31A13.26,13.26,0,0,1,13.06,109.76Z"/><path class="cls-1" d="M60.23,123v13.06H26.31A26.34,26.34,0,0,1,0,109.76V26.31A26.34,26.34,0,0,1,26.31,0H60.23V13.06H26.31A13.26,13.26,0,0,0,13.06,26.31v83.45A13.26,13.26,0,0,0,26.31,123Z"/><path class="cls-1" d="M109.76,0H75.84V13.06h33.92A13.26,13.26,0,0,1,123,26.31v83.45A13.26,13.26,0,0,1,109.76,123H75.84v13.06h33.92a26.34,26.34,0,0,0,26.31-26.31V26.31A26.34,26.34,0,0,0,109.76,0Z"/><path class="cls-1" d="M136.07,109.76a26.34,26.34,0,0,1-26.31,26.31H75.84V123h33.92A13.26,13.26,0,0,0,123,109.76V26.31a13.26,13.26,0,0,0-13.25-13.25H75.84V0h33.92a26.34,26.34,0,0,1,26.31,26.31Z"/></g></g></svg>