<svg xmlns="http://www.w3.org/2000/svg" viewBox="0 0 926.82 136.07"><defs><style>.cls-1{fill:#0086FF;}</style></defs><g id="Layer_2" data-name="Layer 2"><g id="Layer_1-2" data-name="Layer 1"><path class="cls-1" d="M241.21,42.21a42.32,42.32,0,0,0-31.67-14.38A40.3,40.3,0,0,0,189.59,33a37,37,0,0,0-14.21,13.71,38.24,38.24,0,0,0-5,19.51c0,11.26,3.66,20.62,10.89,27.81s16.66,10.85,28,10.85a42.11,42.11,0,0,0,16.53-3.07c4.69-2,9.74-5.58,15-10.67l-8.85-9.24a40.26,40.26,0,0,1-11,8.11,27.74,27.74,0,0,1-11.49,2.35A27.21,27.21,0,0,1,196.16,89a23.87,23.87,0,0,1-9.36-9.28,27.25,27.25,0,0,1-3.31-13.48,25.48,25.48,0,0,1,25.82-25.81c8.39,0,16,3.51,22.77,10.46Z"/><path class="cls-1" d="M191,47.91a25,25,0,0,0-7.47,18.36,27.25,27.25,0,0,0,3.31,13.48A23.87,23.87,0,0,0,196.16,89a27.21,27.21,0,0,0,13.41,3.36A27.74,27.74,0,0,0,221.06,90a40.26,40.26,0,0,0,11-8.11l8.85,9.24c-5.29,5.09-10.34,8.68-15,10.67a42.11,42.11,0,0,1-16.53,3.07c-11.37,0-20.8-3.65-28-10.85s-10.89-16.55-10.89-27.81a38.24,38.24,0,0,1,5-19.51A37,37,0,0,1,189.59,33a40.3,40.3,0,0,1,19.95-5.2,42.32,42.32,0,0,1,31.67,14.38l-9.13,8.71c-6.73-7-14.38-10.46-22.77-10.46A25.05,25.05,0,0,0,191,47.91Z"/><path class="cls-1" d="M93.07,81.93a40.24,40.24,0,0,1-11,8.11,27.79,27.79,0,0,1-11.5,2.35A27.17,27.17,0,0,1,57.19,89a23.8,23.8,0,0,1-9.36-9.28,27.15,27.15,0,0,1-3.31-13.48A25.48,25.48,0,0,1,70.34,40.46c8.38,0,16,3.51,22.76,10.46l9.14-8.71A42.32,42.32,0,0,0,70.56,27.83,40.23,40.23,0,0,0,50.62,33,37,37,0,0,0,36.4,46.74a38.24,38.24,0,0,0-5,19.51c0,11.26,3.67,20.62,10.9,27.81s16.66,10.85,28,10.85a42.11,42.11,0,0,0,16.53-3.07c4.7-2,9.75-5.58,15-10.67Z"/><path class="cls-1" d="M86.89,101.84a42.11,42.11,0,0,1-16.53,3.07c-11.36,0-20.79-3.65-28-10.85s-10.9-16.55-10.9-27.81a38.24,38.24,0,0,1,5-19.51A37,37,0,0,1,50.62,33a40.23,40.23,0,0,1,19.94-5.2,42.32,42.32,0,0,1,31.68,14.38L93.1,50.92c-6.72-7-14.38-10.46-22.76-10.46A25.48,25.48,0,0,0,44.52,66.27a27.15,27.15,0,0,0,3.31,13.48A23.8,23.8,0,0,0,57.19,89a27.17,27.17,0,0,0,13.4,3.36A27.79,27.79,0,0,0,82.09,90a40.24,40.24,0,0,0,11-8.11l8.85,9.24C96.64,96.26,91.59,99.85,86.89,101.84Z"/><polygon class="cls-1" points="346.94 61.59 324.07 61.59 324.07 42.43 354.75 42.43 354.75 29.71 311.09 29.71 311.09 103.04 324.07 103.04 324.07 74.11 346.94 74.11 346.94 61.59"/><path class="cls-1" d="M324.07,103h-13V29.71h43.66V42.43H324.07V61.59h22.87V74.11H324.07Z"/><path class="cls-1" d="M455,91a10.69,10.69,0,0,1-6.17,1.74,10.33,10.33,0,0,1-6.12-1.77A9.87,9.87,0,0,1,439.08,86c-.74-2.09-1.1-5.66-1.1-10.93v-26H425.11V71.46c0,8.7.53,14.77,1.59,18a20.9,20.9,0,0,0,7.67,11c3.61,2.62,8.43,3.94,14.32,3.94,5.43,0,10-1.13,13.47-3.38a21,21,0,0,0,8-9.69c1.48-3.46,2.23-10,2.23-19.52V49.08H459.66V75.5c0,5.31-.29,8.7-.9,10.36A10.19,10.19,0,0,1,455,91Z"/><path class="cls-1" d="M459.66,75.5V49.08h12.72V71.86c0,9.5-.75,16.06-2.23,19.52a21,21,0,0,1-8,9.69c-3.5,2.25-8,3.38-13.47,3.38-5.89,0-10.71-1.32-14.32-3.94a20.9,20.9,0,0,1-7.67-11c-1.06-3.27-1.59-9.34-1.59-18V49.08H438v26c0,5.27.36,8.84,1.1,10.93a9.87,9.87,0,0,0,3.62,4.94,10.33,10.33,0,0,0,6.12,1.77A10.69,10.69,0,0,0,455,91a10.19,10.19,0,0,0,3.77-5.09C459.37,84.2,459.66,80.81,459.66,75.5Z"/><path class="cls-1" d="M513.52,47.67a20.1,20.1,0,0,0-7.6,1.5,32.89,32.89,0,0,0-8.37,5.43l-.9.75V49.08H483.93v54h12.72V81.5c0-5.83.21-9.52.62-11.29a15.5,15.5,0,0,1,4.33-8,10.73,10.73,0,0,1,7.56-3A9.19,9.19,0,0,1,514.92,61a9.56,9.56,0,0,1,3.27,5.22c.61,2.22.9,6.55.9,13.23V103h12.57V67.21c0-6.17-1.56-10.87-4.64-14A18.45,18.45,0,0,0,513.52,47.67Z"/><path class="cls-1" d="M531.66,103H519.09V79.48c0-6.68-.29-11-.9-13.23A9.56,9.56,0,0,0,514.92,61a9.19,9.19,0,0,0-5.76-1.81,10.73,10.73,0,0,0-7.56,3,15.5,15.5,0,0,0-4.33,8c-.41,1.77-.62,5.46-.62,11.29V103H483.93v-54h12.72v6.27l.9-.75a32.89,32.89,0,0,1,8.37-5.43,20.1,20.1,0,0,1,7.6-1.5A18.45,18.45,0,0,1,527,53.22c3.08,3.12,4.64,7.82,4.64,14Z"/><path class="cls-1" d="M682.63,55.7l-1,2.21V49.08H670.84v54h12.62l-.05-24.39c0-7.87.74-13,2.27-15.76a8.39,8.39,0,0,1,7.44-4.33,11.29,11.29,0,0,1,2.41.28l3.63-10a12.12,12.12,0,0,0-4.94-1.15,11.85,11.85,0,0,0-6.68,2A14.25,14.25,0,0,0,682.63,55.7Z"/><path class="cls-1" d="M699.16,48.82l-3.63,10a11.29,11.29,0,0,0-2.41-.28,8.39,8.39,0,0,0-7.44,4.33c-1.53,2.74-2.27,7.89-2.27,15.76l.05,24.39H670.84v-54h10.75v8.83l1-2.21a14.25,14.25,0,0,1,4.91-6,11.85,11.85,0,0,1,6.68-2A12.12,12.12,0,0,1,699.16,48.82Z"/><path class="cls-1" d="M726.44,70.68l-5.06-2.53a15.85,15.85,0,0,1-4.28-2.68,3.53,3.53,0,0,1-1-2.41,3.49,3.49,0,0,1,1.54-2.89,6.47,6.47,0,0,1,4-1.1c2.86,0,6,1.67,9.45,4.94l7.83-7.83a21.71,21.71,0,0,0-17.39-8.51A17.79,17.79,0,0,0,709,52.15a14.13,14.13,0,0,0-4.86,10.76c0,6.49,4.39,12,13.06,16.36l4.65,2.32c4.25,2.15,6.32,4.34,6.32,6.71a4.36,4.36,0,0,1-1.88,3.47,7.45,7.45,0,0,1-4.73,1.43,13.17,13.17,0,0,1-6.05-1.81,20.25,20.25,0,0,1-5.45-4.25l-7.78,8.48a22.52,22.52,0,0,0,18.52,8.83c5.87,0,10.6-1.6,14.07-4.76a16.21,16.21,0,0,0,2.33-21.13C735.3,75.91,731.67,73.26,726.44,70.68Z"/><path class="cls-1" d="M734.89,99.69c-3.47,3.16-8.2,4.76-14.07,4.76a22.52,22.52,0,0,1-18.52-8.83l7.78-8.48a20.25,20.25,0,0,0,5.45,4.25,13.17,13.17,0,0,0,6.05,1.81,7.45,7.45,0,0,0,4.73-1.43,4.36,4.36,0,0,0,1.88-3.47c0-2.37-2.07-4.56-6.32-6.71l-4.65-2.32c-8.67-4.37-13.06-9.87-13.06-16.36A14.13,14.13,0,0,1,709,52.15a17.79,17.79,0,0,1,12.5-4.48,21.71,21.71,0,0,1,17.39,8.51L731.08,64c-3.41-3.27-6.59-4.94-9.45-4.94a6.47,6.47,0,0,0-4,1.1,3.49,3.49,0,0,0-1.54,2.89,3.53,3.53,0,0,0,1,2.41,15.85,15.85,0,0,0,4.28,2.68l5.06,2.53c5.23,2.58,8.86,5.23,10.78,7.88a16.21,16.21,0,0,1-2.33,21.13Z"/><polygon class="cls-1" points="767.48 29.71 754.4 29.71 754.4 103.04 794.39 103.04 794.39 90.62 767.48 90.62 767.48 29.71"/><path class="cls-1" d="M794.39,90.62V103h-40V29.71h13.08V90.62Z"/><path class="cls-1" d="M13.06,109.76V26.31A13.26,13.26,0,0,1,26.31,13.06H60.23V0H26.31A26.34,26.34,0,0,0,0,26.31v83.45a26.34,26.34,0,0,0,26.31,26.31H60.23V123H26.31A13.26,13.26,0,0,1,13.06,109.76Z"/><path class="cls-1" d="M60.23,123v13.06H26.31A26.34,26.34,0,0,1,0,109.76V26.31A26.34,26.34,0,0,1,26.31,0H60.23V13.06H26.31A13.26,13.26,0,0,0,13.06,26.31v83.45A13.26,13.26,0,0,0,26.31,123Z"/><path class="cls-1" d="M109.76,0H75.84V13.06h33.92A13.26,13.26,0,0,1,123,26.31v83.45A13.26,13.26,0,0,1,109.76,123H75.84v13.06h33.92a26.34,26.34,0,0,0,26.31-26.31V26.31A26.34,26.34,0,0,0,109.76,0Z"/><path class="cls-1" d="M136.07,109.76a26.34,26.34,0,0,1-26.31,26.31H75.84V123h33.92A13.26,13.26,0,0,0,123,109.76V26.31a13.26,13.26,0,0,0-13.25-13.25H75.84V0h33.92a26.34,26.34,0,0,1,26.31,26.31Z"/><path class="cls-1" d="M583.9,52.43l-1.1-.67-.45-.27A28.75,28.75,0,0,0,568,47.67a28.3,28.3,0,0,0-28,28.44,27.5,27.5,0,0,0,8.22,20.08A27.05,27.05,0,0,0,568,104.45a28.76,28.76,0,0,0,14.45-3.74l.35-.22,1.08-.65V103h12.72V27.83H583.9ZM579.33,88a14.87,14.87,0,0,1-11.18,4.67A14.71,14.71,0,0,1,557,88.07c-2.91-3.06-4.39-7.1-4.39-12a16.48,16.48,0,0,1,4.44-11.84,15.8,15.8,0,0,1,22.32,0,16.58,16.58,0,0,1,4.38,11.89A16.66,16.66,0,0,1,579.33,88Z"/><path class="cls-1" d="M401.65,51.49a28.77,28.77,0,0,0-14.38-3.82,28.3,28.3,0,0,0-28,28.44,27.53,27.53,0,0,0,8.21,20.08,27.06,27.06,0,0,0,19.83,8.26,28.79,28.79,0,0,0,14.45-3.74,27.56,27.56,0,0,0,10.35-10.4,28.53,28.53,0,0,0,3.8-14.3,28.05,28.05,0,0,0-14.27-24.52Zm-3,36.53a15.71,15.71,0,0,1-22.3,0C373.43,85,372,81,372,76.06a16.52,16.52,0,0,1,4.43-11.84,15.81,15.81,0,0,1,22.33,0,16.58,16.58,0,0,1,4.38,11.89A16.66,16.66,0,0,1,398.63,88Z"/><path class="cls-1" d="M661.58,77.42c0-8.91-2.68-16.18-8-21.6s-12.28-8.15-20.75-8.15a26.88,26.88,0,0,0-20,8.15c-5.28,5.42-8,12.33-8,20.54a27.42,27.42,0,0,0,8,20.08c5.3,5.32,12.27,8,20.72,8a32.21,32.21,0,0,0,14.18-2.9,26.81,26.81,0,0,0,9.83-8.43l-10.7-5a19,19,0,0,1-13.42,5.3,16.72,16.72,0,0,1-11-3.59,15.36,15.36,0,0,1-5.33-9.67l-.1-.63h44.47Zm-44.11-7.7.35-.77c1.59-3.47,3.35-5.94,5.24-7.34a17.15,17.15,0,0,1,10.46-3.35,16.27,16.27,0,0,1,9.67,3,14.48,14.48,0,0,1,5.6,7.77l.21.7Z"/><path class="cls-1" d="M287.63,51.49a28.72,28.72,0,0,0-14.38-3.82,28.3,28.3,0,0,0-28,28.44,27.54,27.54,0,0,0,8.22,20.08,27.05,27.05,0,0,0,19.82,8.26,28.8,28.8,0,0,0,14.46-3.74,27.61,27.61,0,0,0,10.34-10.4A28.53,28.53,0,0,0,301.9,76a28,28,0,0,0-14.27-24.52Zm-3,36.53a14.91,14.91,0,0,1-11.19,4.67,14.71,14.71,0,0,1-11.11-4.62c-2.91-3.06-4.38-7.1-4.38-12a16.52,16.52,0,0,1,4.43-11.84,15.8,15.8,0,0,1,22.32,0,16.59,16.59,0,0,1,4.39,11.89A16.66,16.66,0,0,1,284.62,88Z"/><path class="cls-1" d="M844.42,49.89v2.54l-1.1-.67-.44-.27a28.75,28.75,0,0,0-14.38-3.82,28.3,28.3,0,0,0-28,28.44,27.5,27.5,0,0,0,8.22,20.08,27.05,27.05,0,0,0,19.82,8.26A28.79,28.79,0,0,0,843,100.71l.35-.22,1.07-.65V103h12.73V49.89ZM839.86,88a15.71,15.71,0,0,1-22.3,0c-2.9-3.06-4.38-7.1-4.38-12a16.48,16.48,0,0,1,4.44-11.84,15.8,15.8,0,0,1,22.32,0,16.58,16.58,0,0,1,4.38,11.89A16.66,16.66,0,0,1,839.86,88Z"/><path class="cls-1" d="M917.53,55a27.22,27.22,0,0,0-18.7-7.34,28.72,28.72,0,0,0-14.38,3.82l-.45.27-1.1.67V27.83H870.18V103H882.9v-3.2l1.08.65a3.13,3.13,0,0,0,.34.21,28.71,28.71,0,0,0,14.46,3.75,27.05,27.05,0,0,0,19.82-8.26,27.54,27.54,0,0,0,8.22-20.08A27.45,27.45,0,0,0,917.53,55Zm-7.77,33.06a14.71,14.71,0,0,1-11.11,4.62A14.91,14.91,0,0,1,887.46,88a16.66,16.66,0,0,1-4.46-12,16.63,16.63,0,0,1,4.38-11.89,15.81,15.81,0,0,1,22.33,0,16.52,16.52,0,0,1,4.43,11.84C914.14,81,912.67,85,909.76,88.07Z"/></g></g></svg>