<svg xmlns="http://www.w3.org/2000/svg" viewBox="0 0 136.07 136.07">
    <defs><style>.cls-1{fill:#0086FF;}</style></defs>
    <g id="Layer_2" data-name="Layer 2">
        <g id="Layer_1-2" data-name="Layer 1">
            <path class="cls-1" d="M86.89,101.84a42.11,42.11,0,0,1-16.53,3.07c-11.36,0-20.79-3.65-28-10.85s-10.9-16.55-10.9-27.81a38.24,38.24,0,0,1,5-19.51A37,37,0,0,1,50.62,33a40.23,40.23,0,0,1,19.94-5.2,42.32,42.32,0,0,1,31.68,14.38L93.1,50.92c-6.72-7-14.38-10.46-22.76-10.46A25.48,25.48,0,0,0,44.52,66.27a27.15,27.15,0,0,0,3.31,13.48A23.8,23.8,0,0,0,57.19,89a27.17,27.17,0,0,0,13.4,3.36A27.79,27.79,0,0,0,82.09,90a40.24,40.24,0,0,0,11-8.11l8.85,9.24C96.64,96.26,91.59,99.85,86.89,101.84Z"/>
            <path class="cls-1" d="M60.23,123v13.06H26.31A26.34,26.34,0,0,1,0,109.76V26.31A26.34,26.34,0,0,1,26.31,0H60.23V13.06H26.31A13.26,13.26,0,0,0,13.06,26.31v83.45A13.26,13.26,0,0,0,26.31,123Z"/>
            <path class="cls-1" d="M136.07,109.76a26.34,26.34,0,0,1-26.31,26.31H75.84V123h33.92A13.26,13.26,0,0,0,123,109.76V26.31a13.26,13.26,0,0,0-13.25-13.25H75.84V0h33.92a26.34,26.34,0,0,1,26.31,26.31Z"/>
        </g>
    </g>
</svg>