<svg width="18" height="18" viewBox="0 0 18 18" fill="none" xmlns="http://www.w3.org/2000/svg">
<path fill-rule="evenodd" clip-rule="evenodd" d="M15.7222 1.5C15.9285 1.5 16.1263 1.58194 16.2722 1.72781C16.4181 1.87367 16.5 2.0715 16.5 2.27778V15L14.6516 13.2929C14.464 13.1054 14.2097 13 13.9444 13H2.22781C2.02153 13 1.8237 12.9181 1.67783 12.7722C1.53197 12.6263 1.45003 12.4285 1.45003 12.2222V2.27778C1.45003 2.0715 1.53197 1.87367 1.67783 1.72781C1.8237 1.58194 2.02153 1.5 2.22781 1.5H15.7222ZM17.1864 0.813592C16.6655 0.292658 15.9589 0 15.2222 0H2.77778C2.04107 0 1.33453 0.292658 0.813593 0.813592C0.292658 1.33453 0 2.04106 0 2.77778V11.6667C0 12.4034 0.292658 13.1099 0.813593 13.6309C1.33453 14.1518 2.04106 14.4444 2.77778 14.4444H13.0302L16.2929 17.7071C16.5789 17.9931 17.009 18.0787 17.3827 17.9239C17.7564 17.7691 18 17.4045 18 17V2.77778C18 2.04107 17.7073 1.33453 17.1864 0.813592Z" fill="white"/>
<path fill-rule="evenodd" clip-rule="evenodd" d="M15.7222 1.5C15.9285 1.5 16.1263 1.58194 16.2722 1.72781C16.4181 1.87367 16.5 2.0715 16.5 2.27778V15L14.6516 13.2929C14.464 13.1054 14.2097 13 13.9444 13H2.22781C2.02153 13 1.8237 12.9181 1.67783 12.7722C1.53197 12.6263 1.45003 12.4285 1.45003 12.2222V2.27778C1.45003 2.0715 1.53197 1.87367 1.67783 1.72781C1.8237 1.58194 2.02153 1.5 2.22781 1.5H15.7222ZM17.1864 0.813592C16.6655 0.292658 15.9589 0 15.2222 0H2.77778C2.04107 0 1.33453 0.292658 0.813593 0.813592C0.292658 1.33453 0 2.04106 0 2.77778V11.6667C0 12.4034 0.292658 13.1099 0.813593 13.6309C1.33453 14.1518 2.04106 14.4444 2.77778 14.4444H13.0302L16.2929 17.7071C16.5789 17.9931 17.009 18.0787 17.3827 17.9239C17.7564 17.7691 18 17.4045 18 17V2.77778C18 2.04107 17.7073 1.33453 17.1864 0.813592Z" fill="#4E5D78"/>
</svg>
