<svg width="18" height="18" viewBox="0 0 18 18" fill="none" xmlns="http://www.w3.org/2000/svg">
<path d="M9 0C7.21997 0 5.47991 0.527841 3.99987 1.51677C2.51983 2.50571 1.36628 3.91131 0.685088 5.55585C0.00389957 7.20038 -0.17433 9.00998 0.172936 10.7558C0.520203 12.5016 1.37737 14.1053 2.63604 15.364C3.89472 16.6226 5.49836 17.4798 7.24419 17.8271C8.99002 18.1743 10.7996 17.9961 12.4442 17.3149C14.0887 16.6337 15.4943 15.4802 16.4832 14.0001C17.4722 12.5201 18 10.78 18 9C17.9974 6.61384 17.0484 4.32616 15.3611 2.63889C13.6738 0.951621 11.3862 0.00258081 9 0ZM16.5 9C16.5009 10.4698 16.0672 11.907 15.2535 13.131L14.3595 12.2362C14.2894 12.166 14.25 12.0708 14.25 11.9715V11.25C14.25 10.6533 14.0129 10.081 13.591 9.65901C13.169 9.23705 12.5967 9 12 9H9.75C9.55109 9 9.36032 8.92098 9.21967 8.78033C9.07902 8.63968 9 8.44891 9 8.25V7.875C9 7.77554 9.03951 7.68016 9.10984 7.60983C9.18016 7.53951 9.27555 7.5 9.375 7.5C9.87228 7.5 10.3492 7.30245 10.7008 6.95082C11.0525 6.59919 11.25 6.12228 11.25 5.625V4.875C11.25 4.77554 11.2895 4.68016 11.3598 4.60983C11.4302 4.53951 11.5255 4.5 11.625 4.5H12.6593C13.156 4.49859 13.6322 4.30132 13.9845 3.951L14.2673 3.66825C14.9746 4.36431 15.5364 5.19423 15.9197 6.10963C16.3031 7.02502 16.5003 8.00758 16.5 9ZM1.53675 9.72225L3.90525 12.0907C4.11368 12.3005 4.36169 12.4668 4.63489 12.58C4.90809 12.6931 5.20104 12.7509 5.49675 12.75H7.5C7.69892 12.75 7.88968 12.829 8.03033 12.9697C8.17099 13.1103 8.25 13.3011 8.25 13.5V16.4617C6.52515 16.2857 4.9143 15.5184 3.6907 14.29C2.4671 13.0616 1.70609 11.4478 1.53675 9.72225ZM9.75 16.4617V13.5C9.75 12.9033 9.51295 12.331 9.09099 11.909C8.66904 11.4871 8.09674 11.25 7.5 11.25H5.49675C5.39814 11.2501 5.30049 11.2307 5.20937 11.193C5.11826 11.1553 5.03547 11.1 4.96575 11.0302L1.62225 7.68675C1.83689 6.46665 2.35106 5.31892 3.11863 4.34653C3.88621 3.37415 4.88318 2.60753 6.0201 2.11546C7.15701 1.62339 8.3983 1.42126 9.6326 1.52721C10.8669 1.63316 12.0556 2.04387 13.092 2.7225L12.924 2.8905C12.8534 2.96012 12.7584 2.99941 12.6593 3H11.625C11.1277 3 10.6508 3.19754 10.2992 3.54917C9.94755 3.9008 9.75 4.37772 9.75 4.875V5.625C9.75 5.72446 9.71049 5.81984 9.64017 5.89016C9.56984 5.96049 9.47446 6 9.375 6C8.87772 6 8.40081 6.19754 8.04918 6.54917C7.69755 6.9008 7.5 7.37772 7.5 7.875V8.25C7.5 8.84674 7.73706 9.41903 8.15901 9.84099C8.58097 10.2629 9.15327 10.5 9.75 10.5H12C12.1989 10.5 12.3897 10.579 12.5303 10.7197C12.671 10.8603 12.75 11.0511 12.75 11.25V11.9715C12.7514 12.4683 12.9487 12.9445 13.299 13.2967L14.3018 14.2995C13.0803 15.5251 11.4717 16.2893 9.75 16.4617Z" fill="white"/>
<path d="M9 0C7.21997 0 5.47991 0.527841 3.99987 1.51677C2.51983 2.50571 1.36628 3.91131 0.685088 5.55585C0.00389957 7.20038 -0.17433 9.00998 0.172936 10.7558C0.520203 12.5016 1.37737 14.1053 2.63604 15.364C3.89472 16.6226 5.49836 17.4798 7.24419 17.8271C8.99002 18.1743 10.7996 17.9961 12.4442 17.3149C14.0887 16.6337 15.4943 15.4802 16.4832 14.0001C17.4722 12.5201 18 10.78 18 9C17.9974 6.61384 17.0484 4.32616 15.3611 2.63889C13.6738 0.951621 11.3862 0.00258081 9 0ZM16.5 9C16.5009 10.4698 16.0672 11.907 15.2535 13.131L14.3595 12.2362C14.2894 12.166 14.25 12.0708 14.25 11.9715V11.25C14.25 10.6533 14.0129 10.081 13.591 9.65901C13.169 9.23705 12.5967 9 12 9H9.75C9.55109 9 9.36032 8.92098 9.21967 8.78033C9.07902 8.63968 9 8.44891 9 8.25V7.875C9 7.77554 9.03951 7.68016 9.10984 7.60983C9.18016 7.53951 9.27555 7.5 9.375 7.5C9.87228 7.5 10.3492 7.30245 10.7008 6.95082C11.0525 6.59919 11.25 6.12228 11.25 5.625V4.875C11.25 4.77554 11.2895 4.68016 11.3598 4.60983C11.4302 4.53951 11.5255 4.5 11.625 4.5H12.6593C13.156 4.49859 13.6322 4.30132 13.9845 3.951L14.2673 3.66825C14.9746 4.36431 15.5364 5.19423 15.9197 6.10963C16.3031 7.02502 16.5003 8.00758 16.5 9ZM1.53675 9.72225L3.90525 12.0907C4.11368 12.3005 4.36169 12.4668 4.63489 12.58C4.90809 12.6931 5.20104 12.7509 5.49675 12.75H7.5C7.69892 12.75 7.88968 12.829 8.03033 12.9697C8.17099 13.1103 8.25 13.3011 8.25 13.5V16.4617C6.52515 16.2857 4.9143 15.5184 3.6907 14.29C2.4671 13.0616 1.70609 11.4478 1.53675 9.72225ZM9.75 16.4617V13.5C9.75 12.9033 9.51295 12.331 9.09099 11.909C8.66904 11.4871 8.09674 11.25 7.5 11.25H5.49675C5.39814 11.2501 5.30049 11.2307 5.20937 11.193C5.11826 11.1553 5.03547 11.1 4.96575 11.0302L1.62225 7.68675C1.83689 6.46665 2.35106 5.31892 3.11863 4.34653C3.88621 3.37415 4.88318 2.60753 6.0201 2.11546C7.15701 1.62339 8.3983 1.42126 9.6326 1.52721C10.8669 1.63316 12.0556 2.04387 13.092 2.7225L12.924 2.8905C12.8534 2.96012 12.7584 2.99941 12.6593 3H11.625C11.1277 3 10.6508 3.19754 10.2992 3.54917C9.94755 3.9008 9.75 4.37772 9.75 4.875V5.625C9.75 5.72446 9.71049 5.81984 9.64017 5.89016C9.56984 5.96049 9.47446 6 9.375 6C8.87772 6 8.40081 6.19754 8.04918 6.54917C7.69755 6.9008 7.5 7.37772 7.5 7.875V8.25C7.5 8.84674 7.73706 9.41903 8.15901 9.84099C8.58097 10.2629 9.15327 10.5 9.75 10.5H12C12.1989 10.5 12.3897 10.579 12.5303 10.7197C12.671 10.8603 12.75 11.0511 12.75 11.25V11.9715C12.7514 12.4683 12.9487 12.9445 13.299 13.2967L14.3018 14.2995C13.0803 15.5251 11.4717 16.2893 9.75 16.4617Z" fill="#4E5D78"/>
</svg>
