<svg width="44" height="43" viewBox="0 0 44 43" fill="none" xmlns="http://www.w3.org/2000/svg">
<ellipse cx="22" cy="21.5" rx="22" ry="21.5" fill="#0081FE"/>
<path d="M24.038 14.3333H26.5764C26.8099 14.3333 26.9994 14.1467 26.9994 13.9167V11.4167C26.9994 11.1867 26.8099 11 26.5764 11H24.038C21.4726 11 19.3844 13.0558 19.3844 15.5833V18.5H16.4231C16.1895 18.5 16 18.6867 16 18.9167V21.4167C16 21.6467 16.1895 21.8333 16.4231 21.8333H19.3844V30.5833C19.3844 30.8133 19.574 31 19.8075 31H22.3458C22.5794 31 22.7689 30.8133 22.7689 30.5833V21.8333H25.7303C25.9122 21.8333 26.0738 21.7183 26.1322 21.5483L26.9783 19.0483C27.0214 18.9217 26.9994 18.7817 26.9199 18.6725C26.8395 18.5642 26.7126 18.5 26.5764 18.5H22.7689V15.5833C22.7689 14.8942 23.3383 14.3333 24.038 14.3333Z" fill="white"/>
</svg>
