<?xml version="1.0" standalone="no"?>
<!DOCTYPE svg PUBLIC "-//W3C//DTD SVG 20010904//EN"
 "http://www.w3.org/TR/2001/REC-SVG-20010904/DTD/svg10.dtd">
<svg version="1.0" xmlns="http://www.w3.org/2000/svg"
 width="512.000000pt" height="512.000000pt" viewBox="0 0 512.000000 512.000000"
 preserveAspectRatio="xMidYMid meet">

<g transform="translate(0.000000,512.000000) scale(0.100000,-0.100000)"
fill="#000000" stroke="none">
<path d="M2475 3581 c-219 -36 -395 -164 -490 -357 -89 -179 -84 -416 12 -584
67 -118 168 -212 288 -270 97 -46 169 -62 284 -61 276 2 513 177 603 446 19
59 23 89 22 195 0 108 -4 135 -26 197 -91 255 -305 418 -573 437 -38 2 -92 1
-120 -3z"/>
<path d="M1165 2922 c-105 -39 -179 -96 -235 -179 -79 -120 -92 -298 -32 -427
131 -280 503 -347 717 -129 219 221 152 582 -132 716 -60 28 -80 32 -168 34
-78 3 -111 -1 -150 -15z"/>
<path d="M3695 2927 c-216 -72 -351 -283 -316 -494 33 -193 186 -346 372 -372
196 -27 387 77 471 255 25 53 32 83 36 154 11 192 -83 351 -258 434 -57 27
-77 31 -165 33 -63 2 -115 -2 -140 -10z"/>
<path d="M2118 2070 c-226 -35 -416 -176 -522 -388 -34 -68 -66 -190 -66 -254
l0 -48 1030 0 1030 0 0 48 c0 70 -34 192 -75 270 -73 140 -174 240 -310 306
-138 68 -145 69 -610 72 -231 1 -446 -2 -477 -6z"/>
<path d="M918 1841 c-165 -53 -303 -214 -327 -382 -5 -35 -6 -67 -2 -72 4 -4
180 -6 392 -5 l384 3 6 75 c10 110 36 200 89 306 l47 94 -266 -1 c-229 0 -274
-3 -323 -18z"/>
<path d="M3660 1766 c53 -106 79 -196 89 -306 l6 -75 390 0 390 0 -4 49 c-13
181 -159 357 -340 410 -44 13 -107 16 -316 16 l-262 0 47 -94z"/>
</g>
</svg>
