<svg width="43" height="43" viewBox="0 0 43 43" fill="none" xmlns="http://www.w3.org/2000/svg">
<circle cx="21.5" cy="21.5" r="21.5" fill="#0081FE"/>
<path fill-rule="evenodd" clip-rule="evenodd" d="M17.465 10.066C18.638 10.012 19.012 10 22 10C24.988 10 25.362 10.013 26.534 10.066C27.706 10.119 28.506 10.306 29.206 10.577C29.939 10.854 30.604 11.287 31.154 11.847C31.714 12.396 32.146 13.06 32.422 13.794C32.694 14.494 32.88 15.294 32.934 16.464C32.988 17.639 33 18.013 33 21C33 23.988 32.987 24.362 32.934 25.535C32.881 26.705 32.694 27.505 32.422 28.205C32.146 28.9391 31.7133 29.6042 31.154 30.154C30.604 30.714 29.939 31.146 29.206 31.422C28.506 31.694 27.706 31.88 26.536 31.934C25.362 31.988 24.988 32 22 32C19.012 32 18.638 31.987 17.465 31.934C16.295 31.881 15.495 31.694 14.795 31.422C14.0609 31.146 13.3958 30.7133 12.846 30.154C12.2864 29.6047 11.8533 28.9399 11.577 28.206C11.306 27.506 11.12 26.706 11.066 25.536C11.012 24.361 11 23.987 11 21C11 18.012 11.013 17.638 11.066 16.466C11.119 15.294 11.306 14.494 11.577 13.794C11.8537 13.0601 12.2871 12.3953 12.847 11.846C13.396 11.2865 14.0605 10.8534 14.794 10.577C15.494 10.306 16.294 10.12 17.464 10.066H17.465ZM26.445 12.046C25.285 11.993 24.937 11.982 22 11.982C19.063 11.982 18.715 11.993 17.555 12.046C16.482 12.095 15.9 12.274 15.512 12.425C14.999 12.625 14.632 12.862 14.247 13.247C13.882 13.6021 13.6012 14.0343 13.425 14.512C13.274 14.9 13.095 15.482 13.046 16.555C12.993 17.715 12.982 18.063 12.982 21C12.982 23.937 12.993 24.285 13.046 25.445C13.095 26.518 13.274 27.1 13.425 27.488C13.601 27.965 13.882 28.398 14.247 28.753C14.602 29.118 15.035 29.399 15.512 29.575C15.9 29.726 16.482 29.905 17.555 29.954C18.715 30.007 19.062 30.018 22 30.018C24.938 30.018 25.285 30.007 26.445 29.954C27.518 29.905 28.1 29.726 28.488 29.575C29.001 29.375 29.368 29.138 29.753 28.753C30.118 28.398 30.399 27.965 30.575 27.488C30.726 27.1 30.905 26.518 30.954 25.445C31.007 24.285 31.018 23.937 31.018 21C31.018 18.063 31.007 17.715 30.954 16.555C30.905 15.482 30.726 14.9 30.575 14.512C30.375 13.999 30.138 13.632 29.753 13.247C29.3979 12.8821 28.9657 12.6012 28.488 12.425C28.1 12.274 27.518 12.095 26.445 12.046ZM20.595 24.391C21.3797 24.7176 22.2534 24.7617 23.0669 24.5157C23.8805 24.2697 24.5834 23.7489 25.0556 23.0422C25.5278 22.3356 25.7401 21.4869 25.656 20.6411C25.572 19.7953 25.197 19.005 24.595 18.405C24.2112 18.0215 23.7472 17.7278 23.2363 17.5451C22.7255 17.3625 22.1804 17.2954 21.6405 17.3486C21.1006 17.4019 20.5792 17.5742 20.1138 17.8531C19.6485 18.1321 19.2507 18.5107 18.9493 18.9619C18.6479 19.413 18.4502 19.9253 18.3705 20.462C18.2908 20.9986 18.3312 21.5463 18.4885 22.0655C18.6459 22.5847 18.9165 23.0626 19.2807 23.4647C19.645 23.8668 20.0938 24.1832 20.595 24.391ZM18.002 17.002C18.527 16.477 19.1503 16.0605 19.8363 15.7764C20.5223 15.4922 21.2575 15.346 22 15.346C22.7425 15.346 23.4777 15.4922 24.1637 15.7764C24.8497 16.0605 25.473 16.477 25.998 17.002C26.523 17.527 26.9395 18.1503 27.2236 18.8363C27.5078 19.5223 27.654 20.2575 27.654 21C27.654 21.7425 27.5078 22.4777 27.2236 23.1637C26.9395 23.8497 26.523 24.473 25.998 24.998C24.9377 26.0583 23.4995 26.654 22 26.654C20.5005 26.654 19.0623 26.0583 18.002 24.998C16.9417 23.9377 16.346 22.4995 16.346 21C16.346 19.5005 16.9417 18.0623 18.002 17.002ZM28.908 16.188C29.0381 16.0653 29.1423 15.9177 29.2143 15.754C29.2863 15.5903 29.3248 15.4138 29.3274 15.2349C29.33 15.0561 29.2967 14.8785 29.2295 14.7128C29.1622 14.5471 29.0624 14.3965 28.936 14.27C28.8095 14.1436 28.6589 14.0438 28.4932 13.9765C28.3275 13.9093 28.1499 13.876 27.9711 13.8786C27.7922 13.8812 27.6157 13.9197 27.452 13.9917C27.2883 14.0637 27.1407 14.1679 27.018 14.298C26.7793 14.551 26.6486 14.8871 26.6537 15.2349C26.6588 15.5827 26.7992 15.9149 27.0452 16.1608C27.2911 16.4068 27.6233 16.5472 27.9711 16.5523C28.3189 16.5574 28.655 16.4267 28.908 16.188Z" fill="white"/>
</svg>
