<svg width="44" height="43" viewBox="0 0 44 43" fill="none" xmlns="http://www.w3.org/2000/svg">
<ellipse cx="22" cy="21.5" rx="22" ry="21.5" fill="#0081FE"/>
<path d="M14.3748 16.7496C15.6863 16.7496 16.7496 15.6863 16.7496 14.3748C16.7496 13.0632 15.6863 12 14.3748 12C13.0632 12 12 13.0632 12 14.3748C12 15.6863 13.0632 16.7496 14.3748 16.7496Z" fill="white"/>
<path d="M16.3538 18.334H12.3958C12.1773 18.334 12 18.5113 12 18.7298V30.6037C12 30.8221 12.1773 30.9995 12.3958 30.9995H16.3538C16.5722 30.9995 16.7496 30.8221 16.7496 30.6037V18.7298C16.7496 18.5113 16.5722 18.334 16.3538 18.334Z" fill="white"/>
<path d="M28.1474 17.6759C26.4557 17.0965 24.3398 17.6055 23.0709 18.5182C23.0273 18.348 22.8722 18.2213 22.6877 18.2213H18.7298C18.5113 18.2213 18.334 18.3986 18.334 18.6171V30.491C18.334 30.7095 18.5113 30.8868 18.7298 30.8868H22.6877C22.9062 30.8868 23.0835 30.7095 23.0835 30.491V21.9576C23.7231 21.4067 24.5472 21.231 25.2216 21.5175C25.8755 21.7938 26.2499 22.4682 26.2499 23.3667V30.491C26.2499 30.7095 26.4272 30.8868 26.6457 30.8868H30.6037C30.8221 30.8868 30.9995 30.7095 30.9995 30.491V22.5695C30.9543 19.3169 29.4242 18.1129 28.1474 17.6759Z" fill="white"/>
</svg>
