<svg width="17" height="17" viewBox="0 0 17 17" fill="none" xmlns="http://www.w3.org/2000/svg">
<path d="M15.3 12.1429H17V13.7619H0V12.1429H1.7V6.47619C1.7 4.7586 2.41643 3.11135 3.69167 1.89683C4.96692 0.682311 6.69653 0 8.5 0C10.3035 0 12.0331 0.682311 13.3083 1.89683C14.5836 3.11135 15.3 4.7586 15.3 6.47619V12.1429ZM13.6 12.1429V6.47619C13.6 5.188 13.0627 3.95256 12.1062 3.04167C11.1498 2.13078 9.8526 1.61905 8.5 1.61905C7.1474 1.61905 5.85019 2.13078 4.89376 3.04167C3.93732 3.95256 3.4 5.188 3.4 6.47619V12.1429H13.6ZM5.95 15.381H11.05V17H5.95V15.381Z" fill="white"/>
<path d="M15.3 12.1429H17V13.7619H0V12.1429H1.7V6.47619C1.7 4.7586 2.41643 3.11135 3.69167 1.89683C4.96692 0.682311 6.69653 0 8.5 0C10.3035 0 12.0331 0.682311 13.3083 1.89683C14.5836 3.11135 15.3 4.7586 15.3 6.47619V12.1429ZM13.6 12.1429V6.47619C13.6 5.188 13.0627 3.95256 12.1062 3.04167C11.1498 2.13078 9.8526 1.61905 8.5 1.61905C7.1474 1.61905 5.85019 2.13078 4.89376 3.04167C3.93732 3.95256 3.4 5.188 3.4 6.47619V12.1429H13.6ZM5.95 15.381H11.05V17H5.95V15.381Z" fill="#4E5D78"/>
</svg>
