<svg width="40" height="40" viewBox="0 0 40 40" fill="none" xmlns="http://www.w3.org/2000/svg">
<rect width="40" height="40" rx="6" fill="#38CB89"/>
<rect width="40" height="40" rx="6" fill="white" fill-opacity="0.8"/>
<path fill-rule="evenodd" clip-rule="evenodd" d="M21 26.4807C21 26.8457 21.3805 27.0964 21.7221 26.968C22.9648 26.5007 25.7449 25.6044 29.538 25.2614C29.7983 25.2378 30.0001 25.0276 30.0001 24.7662C30.0001 22.851 30.0001 15.4811 30.0001 13.4912C30.0001 13.215 29.7786 12.9957 29.5028 13.0095C28.2477 13.0722 24.8014 13.3808 21.2953 14.9009C21.1152 14.979 21 15.1574 21 15.3537C21 16.9573 21 24.0941 21 26.4807Z" fill="#38CB89"/>
<path opacity="0.6" fill-rule="evenodd" clip-rule="evenodd" d="M19 26.4807C19 26.8457 18.6195 27.0964 18.2779 26.968C17.0352 26.5007 14.2551 25.6044 10.462 25.2614C10.2017 25.2378 9.99995 25.0276 9.99995 24.7662C9.99995 22.851 9.99995 15.4811 9.99995 13.4912C9.99995 13.215 10.2214 12.9957 10.4972 13.0095C11.7523 13.0722 15.1986 13.3808 18.7047 14.9009C18.8848 14.979 19 15.1574 19 15.3537C19 16.9573 19 24.0941 19 26.4807Z" fill="#38CB89"/>
</svg>
