<svg width="43" height="43" viewBox="0 0 43 43" fill="none" xmlns="http://www.w3.org/2000/svg">
<circle cx="21.5" cy="21.5" r="21.5" fill="#0081FE"/>
<path d="M31.8864 15.0707C31.7542 14.9204 31.5412 14.8826 31.3664 14.9753C31.2577 15.0329 31.0534 15.1085 30.8108 15.1832C31.1169 14.762 31.3629 14.2905 31.4716 13.8667C31.5186 13.684 31.4499 13.4914 31.3003 13.3825C31.1508 13.2745 30.9516 13.2745 30.8021 13.3825C30.5664 13.5526 29.4291 14.0637 28.7099 14.2293C27.0847 12.7562 25.1935 12.6032 23.2274 13.7911C21.6292 14.7566 21.2813 16.7202 21.3492 17.9171C17.6909 17.5526 15.4171 15.5531 14.1371 13.8981C14.0475 13.7821 13.9032 13.7209 13.7675 13.7299C13.6249 13.7407 13.4962 13.8226 13.4232 13.9494C12.818 15.0068 12.6501 16.1758 12.9397 17.3304C13.098 17.9603 13.3745 18.5155 13.6953 18.9655C13.5414 18.8872 13.3927 18.7891 13.2527 18.6721C13.1241 18.5623 12.9441 18.5416 12.7919 18.6145C12.6406 18.6892 12.5441 18.8476 12.5441 19.0213C12.5441 21.0037 13.7423 22.3266 14.8614 23.0177C14.6806 22.9952 14.4919 22.9538 14.3014 22.8935C14.138 22.8422 13.9606 22.8935 13.8475 23.0267C13.7345 23.159 13.7075 23.348 13.778 23.509C14.4066 24.948 15.5979 25.9379 17.0718 26.2969C15.7849 27.0789 14.0623 27.4623 12.4849 27.2742C12.2806 27.2445 12.0858 27.3786 12.0215 27.582C11.9571 27.7854 12.0415 28.0085 12.2215 28.1129C14.6145 29.5033 16.7779 30 18.6475 30C21.3683 30 23.4683 28.9489 24.7465 28.0697C28.1926 25.703 30.3404 21.4537 30.0412 17.6516C30.5934 17.2296 31.4195 16.4503 31.9316 15.6125C32.0377 15.4433 32.0186 15.2201 31.8864 15.0707Z" fill="white"/>
</svg>
