<svg width="16" height="14" viewBox="0 0 16 14" fill="none" xmlns="http://www.w3.org/2000/svg">
<path d="M7.99991 7.4102L11.0838 10.3796L10.0554 11.3701L8.72673 10.0905V14H7.27309V10.0891L5.94446 11.3701L4.91601 10.3796L7.99991 7.4102ZM7.99991 1.55512e-08C9.24785 5.72389e-05 10.4522 0.44178 11.3841 1.24118C12.316 2.04059 12.9104 3.14192 13.0542 4.3358C13.9586 4.57332 14.7475 5.10937 15.2831 5.85027C15.8187 6.59117 16.067 7.48978 15.9845 8.38907C15.902 9.28836 15.4939 10.1311 14.8317 10.7701C14.1695 11.409 13.2952 11.8035 12.3616 11.8846V10.4748C12.696 10.4288 13.0176 10.3191 13.3076 10.1521C13.5975 9.98507 13.85 9.76411 14.0504 9.50209C14.2507 9.24007 14.3948 8.94224 14.4743 8.62599C14.5538 8.30974 14.5671 7.9814 14.5135 7.66015C14.4598 7.33889 14.3402 7.03115 14.1617 6.75489C13.9832 6.47864 13.7493 6.23939 13.4737 6.05113C13.1982 5.86286 12.8864 5.72935 12.5567 5.65839C12.227 5.58742 11.8859 5.58042 11.5533 5.6378C11.6672 5.12742 11.661 4.59898 11.5353 4.09119C11.4096 3.58339 11.1676 3.10911 10.8269 2.70307C10.4863 2.29703 10.0556 1.96952 9.56655 1.74454C9.07745 1.51955 8.5423 1.40278 8.00027 1.40278C7.45825 1.40278 6.92309 1.51955 6.434 1.74454C5.9449 1.96952 5.51426 2.29703 5.1736 2.70307C4.83295 3.10911 4.59091 3.58339 4.46523 4.09119C4.33954 4.59898 4.33339 5.12742 4.44722 5.6378C3.7841 5.51787 3.09869 5.65655 2.54174 6.02333C1.9848 6.39012 1.60195 6.95496 1.47743 7.5936C1.3529 8.23224 1.4969 8.89237 1.87773 9.42876C2.25857 9.96515 2.84505 10.3339 3.50816 10.4538L3.63899 10.4748V11.8846C2.70535 11.8036 1.83096 11.4092 1.16863 10.7703C0.506297 10.1314 0.0981622 9.28869 0.015557 8.38938C-0.0670482 7.49007 0.18113 6.5914 0.716716 5.85044C1.2523 5.10948 2.04123 4.57337 2.94561 4.3358C3.0893 3.14186 3.68362 2.04044 4.61553 1.24101C5.54744 0.441574 6.75193 -9.56919e-05 7.99991 1.55512e-08Z" fill="white"/>
<path d="M7.99991 7.4102L11.0838 10.3796L10.0554 11.3701L8.72673 10.0905V14H7.27309V10.0891L5.94446 11.3701L4.91601 10.3796L7.99991 7.4102ZM7.99991 1.55512e-08C9.24785 5.72389e-05 10.4522 0.44178 11.3841 1.24118C12.316 2.04059 12.9104 3.14192 13.0542 4.3358C13.9586 4.57332 14.7475 5.10937 15.2831 5.85027C15.8187 6.59117 16.067 7.48978 15.9845 8.38907C15.902 9.28836 15.4939 10.1311 14.8317 10.7701C14.1695 11.409 13.2952 11.8035 12.3616 11.8846V10.4748C12.696 10.4288 13.0176 10.3191 13.3076 10.1521C13.5975 9.98507 13.85 9.76411 14.0504 9.50209C14.2507 9.24007 14.3948 8.94224 14.4743 8.62599C14.5538 8.30974 14.5671 7.9814 14.5135 7.66015C14.4598 7.33889 14.3402 7.03115 14.1617 6.75489C13.9832 6.47864 13.7493 6.23939 13.4737 6.05113C13.1982 5.86286 12.8864 5.72935 12.5567 5.65839C12.227 5.58742 11.8859 5.58042 11.5533 5.6378C11.6672 5.12742 11.661 4.59898 11.5353 4.09119C11.4096 3.58339 11.1676 3.10911 10.8269 2.70307C10.4863 2.29703 10.0556 1.96952 9.56655 1.74454C9.07745 1.51955 8.5423 1.40278 8.00027 1.40278C7.45825 1.40278 6.92309 1.51955 6.434 1.74454C5.9449 1.96952 5.51426 2.29703 5.1736 2.70307C4.83295 3.10911 4.59091 3.58339 4.46523 4.09119C4.33954 4.59898 4.33339 5.12742 4.44722 5.6378C3.7841 5.51787 3.09869 5.65655 2.54174 6.02333C1.9848 6.39012 1.60195 6.95496 1.47743 7.5936C1.3529 8.23224 1.4969 8.89237 1.87773 9.42876C2.25857 9.96515 2.84505 10.3339 3.50816 10.4538L3.63899 10.4748V11.8846C2.70535 11.8036 1.83096 11.4092 1.16863 10.7703C0.506297 10.1314 0.0981622 9.28869 0.015557 8.38938C-0.0670482 7.49007 0.18113 6.5914 0.716716 5.85044C1.2523 5.10948 2.04123 4.57337 2.94561 4.3358C3.0893 3.14186 3.68362 2.04044 4.61553 1.24101C5.54744 0.441574 6.75193 -9.56919e-05 7.99991 1.55512e-08Z" fill="#4E5D78"/>
</svg>
