<svg width="16" height="16" viewBox="0 0 16 16" fill="none" xmlns="http://www.w3.org/2000/svg">
<path fill-rule="evenodd" clip-rule="evenodd" d="M1.30175 11.9678C2.13524 11.1343 3.2657 10.666 4.44444 10.666H11.5556C12.7343 10.666 13.8648 11.1343 14.6983 11.9678C15.5317 12.8013 16 13.9317 16 15.1105C16 15.6014 15.602 15.9993 15.1111 15.9993C14.6202 15.9993 14.2222 15.6014 14.2222 15.1105C14.2222 14.4032 13.9413 13.7249 13.4412 13.2248C12.9411 12.7247 12.2628 12.4438 11.5556 12.4438H4.44444C3.7372 12.4438 3.05892 12.7247 2.55883 13.2248C2.05873 13.7249 1.77778 14.4032 1.77778 15.1105C1.77778 15.6014 1.37981 15.9993 0.888889 15.9993C0.397969 15.9993 0 15.6014 0 15.1105C0 13.9317 0.468253 12.8013 1.30175 11.9678Z" fill="white"/>
<path fill-rule="evenodd" clip-rule="evenodd" d="M1.30175 11.9678C2.13524 11.1343 3.2657 10.666 4.44444 10.666H11.5556C12.7343 10.666 13.8648 11.1343 14.6983 11.9678C15.5317 12.8013 16 13.9317 16 15.1105C16 15.6014 15.602 15.9993 15.1111 15.9993C14.6202 15.9993 14.2222 15.6014 14.2222 15.1105C14.2222 14.4032 13.9413 13.7249 13.4412 13.2248C12.9411 12.7247 12.2628 12.4438 11.5556 12.4438H4.44444C3.7372 12.4438 3.05892 12.7247 2.55883 13.2248C2.05873 13.7249 1.77778 14.4032 1.77778 15.1105C1.77778 15.6014 1.37981 15.9993 0.888889 15.9993C0.397969 15.9993 0 15.6014 0 15.1105C0 13.9317 0.468253 12.8013 1.30175 11.9678Z" fill="#4E5D78"/>
<path fill-rule="evenodd" clip-rule="evenodd" d="M7.99913 1.77778C6.52637 1.77778 5.33247 2.97169 5.33247 4.44444C5.33247 5.9172 6.52637 7.11111 7.99913 7.11111C9.47189 7.11111 10.6658 5.9172 10.6658 4.44444C10.6658 2.97169 9.47189 1.77778 7.99913 1.77778ZM3.55469 4.44444C3.55469 1.98985 5.54453 0 7.99913 0C10.4537 0 12.4436 1.98985 12.4436 4.44444C12.4436 6.89904 10.4537 8.88889 7.99913 8.88889C5.54453 8.88889 3.55469 6.89904 3.55469 4.44444Z" fill="white"/>
<path fill-rule="evenodd" clip-rule="evenodd" d="M7.99913 1.77778C6.52637 1.77778 5.33247 2.97169 5.33247 4.44444C5.33247 5.9172 6.52637 7.11111 7.99913 7.11111C9.47189 7.11111 10.6658 5.9172 10.6658 4.44444C10.6658 2.97169 9.47189 1.77778 7.99913 1.77778ZM3.55469 4.44444C3.55469 1.98985 5.54453 0 7.99913 0C10.4537 0 12.4436 1.98985 12.4436 4.44444C12.4436 6.89904 10.4537 8.88889 7.99913 8.88889C5.54453 8.88889 3.55469 6.89904 3.55469 4.44444Z" fill="#4E5D78"/>
</svg>
