<svg width="16" height="14" viewBox="0 0 16 14" fill="none" xmlns="http://www.w3.org/2000/svg">
<path d="M8 0C11.9871 0 15.3042 3.01778 16 7C15.3049 10.9822 11.9871 14 8 14C4.01294 14 0.695813 10.9822 0 7C0.695073 3.01778 4.01294 0 8 0ZM8 12.4444C9.50806 12.4441 10.9714 11.9053 12.1504 10.9162C13.3294 9.92718 14.1543 8.54644 14.4901 7C14.1531 5.45479 13.3276 4.07556 12.1487 3.0878C10.9698 2.10004 9.5072 1.56219 8 1.56219C6.4928 1.56219 5.03018 2.10004 3.85128 3.0878C2.67238 4.07556 1.84695 5.45479 1.50994 7C1.84571 8.54644 2.67062 9.92718 3.84963 10.9162C5.02865 11.9053 6.49194 12.4441 8 12.4444ZM8 10.5C7.1175 10.5 6.27114 10.1313 5.64712 9.47487C5.02309 8.8185 4.67252 7.92826 4.67252 7C4.67252 6.07174 5.02309 5.1815 5.64712 4.52513C6.27114 3.86875 7.1175 3.5 8 3.5C8.8825 3.5 9.72886 3.86875 10.3529 4.52513C10.9769 5.1815 11.3275 6.07174 11.3275 7C11.3275 7.92826 10.9769 8.8185 10.3529 9.47487C9.72886 10.1313 8.8825 10.5 8 10.5ZM8 8.94444C8.49028 8.94444 8.96048 8.73958 9.30716 8.37493C9.65384 8.01028 9.8486 7.5157 9.8486 7C9.8486 6.4843 9.65384 5.98972 9.30716 5.62507C8.96048 5.26042 8.49028 5.05556 8 5.05556C7.50972 5.05556 7.03952 5.26042 6.69284 5.62507C6.34616 5.98972 6.1514 6.4843 6.1514 7C6.1514 7.5157 6.34616 8.01028 6.69284 8.37493C7.03952 8.73958 7.50972 8.94444 8 8.94444Z" fill="white"/>
<path d="M8 0C11.9871 0 15.3042 3.01778 16 7C15.3049 10.9822 11.9871 14 8 14C4.01294 14 0.695813 10.9822 0 7C0.695073 3.01778 4.01294 0 8 0ZM8 12.4444C9.50806 12.4441 10.9714 11.9053 12.1504 10.9162C13.3294 9.92718 14.1543 8.54644 14.4901 7C14.1531 5.45479 13.3276 4.07556 12.1487 3.0878C10.9698 2.10004 9.5072 1.56219 8 1.56219C6.4928 1.56219 5.03018 2.10004 3.85128 3.0878C2.67238 4.07556 1.84695 5.45479 1.50994 7C1.84571 8.54644 2.67062 9.92718 3.84963 10.9162C5.02865 11.9053 6.49194 12.4441 8 12.4444ZM8 10.5C7.1175 10.5 6.27114 10.1313 5.64712 9.47487C5.02309 8.8185 4.67252 7.92826 4.67252 7C4.67252 6.07174 5.02309 5.1815 5.64712 4.52513C6.27114 3.86875 7.1175 3.5 8 3.5C8.8825 3.5 9.72886 3.86875 10.3529 4.52513C10.9769 5.1815 11.3275 6.07174 11.3275 7C11.3275 7.92826 10.9769 8.8185 10.3529 9.47487C9.72886 10.1313 8.8825 10.5 8 10.5ZM8 8.94444C8.49028 8.94444 8.96048 8.73958 9.30716 8.37493C9.65384 8.01028 9.8486 7.5157 9.8486 7C9.8486 6.4843 9.65384 5.98972 9.30716 5.62507C8.96048 5.26042 8.49028 5.05556 8 5.05556C7.50972 5.05556 7.03952 5.26042 6.69284 5.62507C6.34616 5.98972 6.1514 6.4843 6.1514 7C6.1514 7.5157 6.34616 8.01028 6.69284 8.37493C7.03952 8.73958 7.50972 8.94444 8 8.94444Z" fill="#4E5D78"/>
</svg>
