<svg width="16" height="10" viewBox="0 0 16 10" fill="none" xmlns="http://www.w3.org/2000/svg">
<path fill-rule="evenodd" clip-rule="evenodd" d="M15.6384 1.40788C15.8604 1.52214 16 1.75093 16 2.00065V8.66732C16 8.91704 15.8604 9.14583 15.6384 9.2601C15.4163 9.37437 15.1491 9.35496 14.9458 9.20981L10.2792 5.87648C10.104 5.75133 10 5.54929 10 5.33399C10 5.11869 10.104 4.91664 10.2792 4.7915L14.9458 1.45816C15.1491 1.31301 15.4163 1.29361 15.6384 1.40788ZM11.6471 5.35049L14.5 7.25049V3.50049L11.6471 5.35049Z" fill="white"/>
<path fill-rule="evenodd" clip-rule="evenodd" d="M15.6384 1.40788C15.8604 1.52214 16 1.75093 16 2.00065V8.66732C16 8.91704 15.8604 9.14583 15.6384 9.2601C15.4163 9.37437 15.1491 9.35496 14.9458 9.20981L10.2792 5.87648C10.104 5.75133 10 5.54929 10 5.33399C10 5.11869 10.104 4.91664 10.2792 4.7915L14.9458 1.45816C15.1491 1.31301 15.4163 1.29361 15.6384 1.40788ZM11.6471 5.35049L14.5 7.25049V3.50049L11.6471 5.35049Z" fill="#4E5D78"/>
<path fill-rule="evenodd" clip-rule="evenodd" d="M2.07246 1.5C1.72028 1.5 1.43478 1.77982 1.43478 2.125V7.875C1.43478 8.22018 1.72028 8.5 2.07246 8.5H8.92754C9.27972 8.5 9.56522 8.22018 9.56522 7.875V2.125C9.56522 1.77982 9.27972 1.5 8.92754 1.5H2.07246ZM0 1.875C0 0.839466 0.856499 0 1.91304 0H9.08696C10.1435 0 11 0.839466 11 1.875V8.125C11 9.16053 10.1435 10 9.08696 10H1.91304C0.856499 10 0 9.16053 0 8.125V1.875Z" fill="white"/>
<path fill-rule="evenodd" clip-rule="evenodd" d="M2.07246 1.5C1.72028 1.5 1.43478 1.77982 1.43478 2.125V7.875C1.43478 8.22018 1.72028 8.5 2.07246 8.5H8.92754C9.27972 8.5 9.56522 8.22018 9.56522 7.875V2.125C9.56522 1.77982 9.27972 1.5 8.92754 1.5H2.07246ZM0 1.875C0 0.839466 0.856499 0 1.91304 0H9.08696C10.1435 0 11 0.839466 11 1.875V8.125C11 9.16053 10.1435 10 9.08696 10H1.91304C0.856499 10 0 9.16053 0 8.125V1.875Z" fill="#4E5D78"/>
</svg>
