<svg width="16" height="16" viewBox="0 0 16 16" fill="none" xmlns="http://www.w3.org/2000/svg">
<path fill-rule="evenodd" clip-rule="evenodd" d="M8.38266 1.25881C9.23031 0.44195 10.3656 -0.0100477 11.544 0.00016952C12.7224 0.0103867 13.8497 0.482001 14.683 1.31344C15.5163 2.14487 15.9889 3.2696 15.9992 4.44539C16.0094 5.62117 15.5564 6.75393 14.7377 7.59969L14.7286 7.60895L12.4815 9.85103C12.0259 10.3058 11.4775 10.6575 10.8737 10.8822C10.2699 11.107 9.62468 11.1995 8.98186 11.1536C8.33903 11.1076 7.71363 10.9243 7.14806 10.616C6.58249 10.3077 6.09 9.88164 5.70397 9.36672C5.45618 9.03618 5.52385 8.5678 5.85512 8.32056C6.1864 8.07332 6.65582 8.14084 6.90362 8.47138C7.16097 8.81465 7.4893 9.0987 7.86635 9.30423C8.24339 9.50977 8.66033 9.632 9.08888 9.66262C9.51743 9.69324 9.94756 9.63155 10.3501 9.48172C10.7527 9.33189 11.1182 9.09743 11.422 8.79425L11.4221 8.79415L13.6644 6.55682C14.2075 5.99346 14.5079 5.24019 14.5011 4.45837C14.4943 3.67452 14.1792 2.9247 13.6236 2.37041C13.0681 1.81612 12.3166 1.50171 11.531 1.4949C10.7471 1.4881 9.99182 1.78811 9.42712 2.33044L8.14278 3.60447C7.8494 3.89549 7.37512 3.89411 7.08345 3.60138C6.79177 3.30866 6.79316 2.83544 7.08653 2.54442L8.37492 1.26638L8.38266 1.25881Z" fill="white"/>
<path fill-rule="evenodd" clip-rule="evenodd" d="M8.38266 1.25881C9.23031 0.44195 10.3656 -0.0100477 11.544 0.00016952C12.7224 0.0103867 13.8497 0.482001 14.683 1.31344C15.5163 2.14487 15.9889 3.2696 15.9992 4.44539C16.0094 5.62117 15.5564 6.75393 14.7377 7.59969L14.7286 7.60895L12.4815 9.85103C12.0259 10.3058 11.4775 10.6575 10.8737 10.8822C10.2699 11.107 9.62468 11.1995 8.98186 11.1536C8.33903 11.1076 7.71363 10.9243 7.14806 10.616C6.58249 10.3077 6.09 9.88164 5.70397 9.36672C5.45618 9.03618 5.52385 8.5678 5.85512 8.32056C6.1864 8.07332 6.65582 8.14084 6.90362 8.47138C7.16097 8.81465 7.4893 9.0987 7.86635 9.30423C8.24339 9.50977 8.66033 9.632 9.08888 9.66262C9.51743 9.69324 9.94756 9.63155 10.3501 9.48172C10.7527 9.33189 11.1182 9.09743 11.422 8.79425L11.4221 8.79415L13.6644 6.55682C14.2075 5.99346 14.5079 5.24019 14.5011 4.45837C14.4943 3.67452 14.1792 2.9247 13.6236 2.37041C13.0681 1.81612 12.3166 1.50171 11.531 1.4949C10.7471 1.4881 9.99182 1.78811 9.42712 2.33044L8.14278 3.60447C7.8494 3.89549 7.37512 3.89411 7.08345 3.60138C6.79177 3.30866 6.79316 2.83544 7.08653 2.54442L8.37492 1.26638L8.38266 1.25881Z" fill="#4E5D78"/>
<path fill-rule="evenodd" clip-rule="evenodd" d="M5.12562 5.11679C5.72945 4.89205 6.37466 4.79951 7.01748 4.84544C7.66031 4.89138 8.28571 5.07471 8.85128 5.38302C9.41684 5.69133 9.90934 6.11739 10.2954 6.63231C10.5432 6.96284 10.4755 7.43122 10.1442 7.67846C9.81294 7.92571 9.34351 7.85818 9.09572 7.52765C8.83837 7.18437 8.51004 6.90033 8.13299 6.69479C7.75595 6.48926 7.33901 6.36703 6.91046 6.33641C6.48191 6.30578 6.05177 6.36748 5.64922 6.51731C5.24667 6.66714 4.88112 6.90159 4.57737 7.20478L2.33494 9.4422C1.79184 10.0056 1.49143 10.7588 1.49824 11.5407C1.50507 12.3245 1.82018 13.0743 2.37571 13.6286C2.93124 14.1829 3.68274 14.4973 4.46834 14.5041C5.2519 14.5109 6.00685 14.2112 6.57147 13.6693L7.84752 12.3961C8.14005 12.1042 8.61433 12.1042 8.90686 12.3961C9.19939 12.688 9.19939 13.1612 8.90686 13.4531L7.62596 14.7311L7.61668 14.7402C6.76903 15.5571 5.63374 16.0091 4.45533 15.9989C3.27691 15.9886 2.14967 15.517 1.31637 14.6856C0.483079 13.8542 0.01041 12.7294 0.000169899 11.5536C-0.0100702 10.3779 0.442938 9.2451 1.26163 8.39934L1.27075 8.39008L3.51784 6.148C3.51788 6.14796 3.51781 6.14803 3.51784 6.148C3.97345 5.69327 4.52184 5.34152 5.12562 5.11679Z" fill="white"/>
<path fill-rule="evenodd" clip-rule="evenodd" d="M5.12562 5.11679C5.72945 4.89205 6.37466 4.79951 7.01748 4.84544C7.66031 4.89138 8.28571 5.07471 8.85128 5.38302C9.41684 5.69133 9.90934 6.11739 10.2954 6.63231C10.5432 6.96284 10.4755 7.43122 10.1442 7.67846C9.81294 7.92571 9.34351 7.85818 9.09572 7.52765C8.83837 7.18437 8.51004 6.90033 8.13299 6.69479C7.75595 6.48926 7.33901 6.36703 6.91046 6.33641C6.48191 6.30578 6.05177 6.36748 5.64922 6.51731C5.24667 6.66714 4.88112 6.90159 4.57737 7.20478L2.33494 9.4422C1.79184 10.0056 1.49143 10.7588 1.49824 11.5407C1.50507 12.3245 1.82018 13.0743 2.37571 13.6286C2.93124 14.1829 3.68274 14.4973 4.46834 14.5041C5.2519 14.5109 6.00685 14.2112 6.57147 13.6693L7.84752 12.3961C8.14005 12.1042 8.61433 12.1042 8.90686 12.3961C9.19939 12.688 9.19939 13.1612 8.90686 13.4531L7.62596 14.7311L7.61668 14.7402C6.76903 15.5571 5.63374 16.0091 4.45533 15.9989C3.27691 15.9886 2.14967 15.517 1.31637 14.6856C0.483079 13.8542 0.01041 12.7294 0.000169899 11.5536C-0.0100702 10.3779 0.442938 9.2451 1.26163 8.39934L1.27075 8.39008L3.51784 6.148C3.51788 6.14796 3.51781 6.14803 3.51784 6.148C3.97345 5.69327 4.52184 5.34152 5.12562 5.11679Z" fill="#4E5D78"/>
</svg>
