<svg width="26" height="26" viewBox="0 0 26 26" fill="none" xmlns="http://www.w3.org/2000/svg">
<path d="M0.989937 0.0755485L25.6542 12.4655C25.7589 12.5182 25.8463 12.5956 25.9071 12.6896C25.9679 12.7836 26 12.8908 26 13C26 13.1092 25.9679 13.2164 25.9071 13.3104C25.8463 13.4044 25.7589 13.4818 25.6542 13.5345L0.989937 25.9244C0.888236 25.9755 0.773711 26.0016 0.657651 25.9999C0.541591 25.9983 0.428001 25.9691 0.328077 25.9151C0.228154 25.8612 0.145346 25.7844 0.0878164 25.6923C0.0302864 25.6002 1.98729e-05 25.496 0 25.39V0.61C1.98729e-05 0.503982 0.0302864 0.399798 0.0878164 0.307718C0.145346 0.215637 0.228154 0.138839 0.328077 0.0848918C0.428001 0.0309447 0.541591 0.00171125 0.657651 7.28728e-05C0.773711 -0.0015655 0.888236 0.0244477 0.989937 0.0755485ZM2.67189 14.2202V22.2943L21.1748 13L2.67189 3.70567V11.7798H9.35163V14.2202H2.67189Z" fill="#377DFF"/>
</svg>
